<svg xmlns="http://www.w3.org/2000/svg" height="24" viewBox="0 -960 960 960" width="24"><path d="M400-492.309q-57.749 0-98.874-41.124-41.125-41.125-41.125-98.874 0-57.75 41.125-98.874 41.125-41.125 98.874-41.125 57.749 0 98.874 41.125 41.125 41.124 41.125 98.874 0 57.749-41.125 98.874-41.125 41.124-98.874 41.124ZM100.001-187.694v-88.922q0-30.307 15.462-54.884 15.461-24.576 43.153-38.038 49.847-24.846 107.692-41.5Q324.154-427.691 400-427.691h11.692q4.846 0 10.462 1.23-6.077 14.154-10.039 28.846-3.961 14.692-6.576 29.922H400q-69.077 0-122.307 15.885-53.231 15.884-91.539 35.807-13.615 7.308-19.885 17.077-6.269 9.77-6.269 22.308v28.923h252q4.461 15.23 11.577 30.922 7.115 15.692 15.653 29.077H100.001Zm544.23 29.614-8.923-53.076q-14.308-4.231-26.923-11.077-12.616-6.846-24-17.154l-50.692 17.615-28.461-48.383 41.384-33.846q-4.307-15.538-4.307-30.615 0-15.078 4.307-30.616l-40.999-34.615 28.461-48.383 50.307 18q11-10.308 23.808-16.962 12.807-6.654 27.115-10.885l8.923-53.076h56.921l8.539 53.076q14.308 4.231 27.115 11.193 12.808 6.961 23.808 17.884l50.307-19.23 28.461 49.614-41 34.615q4.308 14.429 4.308 30.061 0 15.631-4.308 29.939l41.385 33.846-28.461 48.383-50.692-17.615q-11.384 10.308-24 17.154-12.615 6.846-26.923 11.077l-8.539 53.076h-56.921Zm28.11-100.383q31.428 0 53.774-22.38t22.346-53.807q0-31.428-22.38-53.774t-53.808-22.346q-31.427 0-53.773 22.38-22.346 22.38-22.346 53.808 0 31.427 22.38 53.773 22.38 22.346 53.807 22.346ZM400-552.307q33 0 56.5-23.5t23.5-56.5q0-33-23.5-56.5t-56.5-23.5q-33 0-56.5 23.5t-23.5 56.5q0 33 23.5 56.5t56.5 23.5Zm0-80Zm12 384.614Z"/></svg>