<svg xmlns="http://www.w3.org/2000/svg" height="24" viewBox="0 -960 960 960" width="24"><path d="M480.067-100.001q-78.836 0-148.204-29.92-69.369-29.92-120.682-81.21-51.314-51.291-81.247-120.629-29.933-69.337-29.933-148.173t29.925-148.204q29.925-69.369 81.225-120.682 51.3-51.314 120.65-81.247Q401.15-859.999 480-859.999q63.204 0 119.602 19t103.474 53l-43.383 44.384q-38.769-26.692-83.991-41.539Q530.48-800 480-800q-133 0-226.5 93.5T160-480q0 133 93.5 226.5T480-160q133 0 226.5-93.5T800-480q0-21.077-2.769-41.69-2.77-20.612-8.308-40.08l48.46-48.845q11 30.846 16.808 63.463 5.808 32.617 5.808 67.152 0 78.85-29.92 148.199-29.92 69.35-81.21 120.65-51.291 51.3-120.629 81.225-69.337 29.925-148.173 29.925Zm-56.836-209.846L267.078-466l42.153-42.153 114 114 394.615-395.23 42.153 42.153-436.768 437.383Z"/></svg>