<svg xmlns="http://www.w3.org/2000/svg" height="24" viewBox="0 -960 960 960" width="24"><path d="M349.999-240h437.692q4.616 0 8.463-3.846 3.846-3.847 3.846-8.463v-104.692H349.999V-240ZM160-602.999h130.001V-720H172.309q-4.616 0-8.463 3.846-3.846 3.847-3.846 8.463v104.692Zm0 187h130.001v-127.002H160v127.002ZM172.309-240h117.692v-117.001H160v104.692q0 4.616 3.846 8.463 3.847 3.846 8.463 3.846Zm177.69-175.999H800v-127.002H349.999v127.002Zm0-187H800v-104.692q0-4.616-3.846-8.463-3.847-3.846-8.463-3.846H349.999v117.001Zm-177.69 422.998q-30.308 0-51.308-21t-21-51.308v-455.382q0-30.308 21-51.308t51.308-21h615.382q30.308 0 51.308 21t21 51.308v455.382q0 30.308-21 51.308t-51.308 21H172.309Z"/></svg>